<?xml version="1.0" standalone="no"?>
<!DOCTYPE svg PUBLIC "-//W3C//DTD SVG 1.1//EN" "http://www.w3.org/Graphics/SVG/1.1/DTD/svg11.dtd" >
<svg xmlns="http://www.w3.org/2000/svg">
<metadata>
This is a custom SVG webfont generated by Font Squirrel.
</metadata>
<defs>
<font id="webfontoNEpZXy2" horiz-adv-x="616" >
<font-face units-per-em="1000" ascent="750" descent="-250" />
<missing-glyph horiz-adv-x="260" />
<glyph unicode=" "  horiz-adv-x="260" />
<glyph unicode="&#x09;" horiz-adv-x="260" />
<glyph unicode="&#xa0;" horiz-adv-x="260" />
<glyph unicode="!" horiz-adv-x="281" d="M85 49q0 24 16 39.5t40 15.5t39.5 -15.5t15.5 -39.5t-15.5 -40t-39.5 -16t-40 16t-16 40zM174 184h-66l-13 636h92z" />
<glyph unicode="&#x22;" horiz-adv-x="378" d="M45 715q0 24 16 39.5t40 15.5q30 0 45.5 -24.5t15.5 -57.5q-1 -72 -74 -162l-42 14q50 62 59 119q-27 0 -43.5 16t-16.5 40zM216 715q0 24 16 39.5t40 15.5q29 0 45 -24.5t16 -57.5q-1 -72 -74 -162l-42 14q50 62 59 119q-27 0 -43.5 16t-16.5 40z" />
<glyph unicode="#" horiz-adv-x="825" d="M95 488l17 72h171l52 210h74l-52 -210h176l52 210h74l-52 -210h178l-17 -72h-179l-43 -177h184l-17 -72h-185l-58 -239h-74l58 239h-176l-58 -239h-74l58 239h-164l17 72h165l43 177h-170zM339 488l-43 -177h176l43 177h-176z" />
<glyph unicode="$" horiz-adv-x="655" d="M57 137l61 58q64 -104 189 -123v296q-38 12 -63 21.5t-54.5 26.5t-46.5 36.5t-29 49t-12 66.5q0 57 20.5 99.5t53.5 65t65 33.5t66 14v61h64v-62q127 -12 201 -91l-62 -54q-52 53 -139 64v-262q53 -17 86 -31t71 -40t57 -64.5t19 -89.5q0 -100 -67.5 -157.5t-165.5 -63.5 v-58h-64v60q-164 19 -250 145zM520 211q0 55 -38.5 84.5t-110.5 52.5v-278q63 6 106 42.5t43 98.5zM186 568q0 -42 31.5 -67.5t89.5 -44.5v243q-48 -7 -84.5 -37t-36.5 -94z" />
<glyph unicode="%" horiz-adv-x="1009" d="M570 203q1 111 56 160t133 50q36 0 67.5 -10.5t60.5 -33t45.5 -66t16.5 -102.5q-1 -111 -56.5 -159.5t-132.5 -48.5q-35 0 -66.5 10.5t-60.5 33t-46 65.5t-17 101zM60 570q0 58 17 100.5t45.5 65t60 33t66.5 10.5q36 0 67.5 -10t60.5 -33t45.5 -66t16.5 -102 q-1 -111 -56.5 -159.5t-132.5 -48.5q-35 0 -66.5 10.5t-60.5 33t-46 65.5t-17 101zM751 814h86l-580 -861h-86zM249 723q-47 -1 -80.5 -36.5t-33.5 -116.5q0 -82 34 -118t81 -36t80 35.5t34 116.5q0 83 -33.5 119t-81.5 36zM761 357q-47 0 -81 -36.5t-34 -119.5 q0 -81 33.5 -116.5t80.5 -35.5t80 35.5t34 116.5q0 82 -33 118.5t-80 37.5z" />
<glyph unicode="&#x26;" horiz-adv-x="880" d="M60 200q0 73 46.5 124t130.5 98q-51 56 -77 99t-26 85q0 45 18.5 78t50.5 51t67.5 26.5t75.5 8.5q87 0 147.5 -39t60.5 -125q0 -59 -50 -102.5t-144 -91.5l184 -197q15 23 28 49l34 68l27 55l62 -38q-79 -158 -98 -189q89 -88 103 -85q18 0 26 1.5t20.5 14.5t24.5 40 l54 -32q-17 -38 -32 -60.5t-32.5 -31t-28 -10.5t-32.5 -2q-35 -4 -149 101q-90 -103 -240 -103q-29 0 -68.5 11.5t-82 34.5t-71.5 65.5t-29 95.5zM284 373q-66 -36 -103 -77t-37 -96q0 -41 33.5 -70.5t69.5 -41t64 -11.5q111 1 184 74zM470 606q0 55 -36 79.5t-88 24.5 q-53 0 -90.5 -25t-37.5 -79q0 -44 95 -144q49 25 78.5 43t54 45.5t24.5 55.5z" />
<glyph unicode="'" horiz-adv-x="207" d="M45 715q0 24 16 39.5t40 15.5q30 0 45.5 -24.5t15.5 -57.5q-1 -72 -74 -162l-42 14q50 62 59 119q-27 0 -43.5 16t-16.5 40z" />
<glyph unicode="(" horiz-adv-x="338" d="M302 770l6 -70q-47 -17 -81.5 -70.5t-51 -124.5t-24 -133.5t-7.5 -117.5q0 -54 7.5 -116.5t24 -133.5t51 -125t81.5 -70l-6 -70q-55 6 -99 48t-69.5 100t-43 129t-24 130t-6.5 108q0 48 6.5 107.5t24 131.5t43.5 130.5t70 100t98 46.5z" />
<glyph unicode=")" horiz-adv-x="338" d="M30 700l6 70q54 -5 98 -46.5t70 -100t43.5 -130.5t24 -131.5t6.5 -107.5q0 -49 -6.5 -108t-24 -130t-43 -129t-69.5 -100t-99 -48l-6 70q47 16 81.5 70t51 125t24 133.5t7.5 116.5q0 55 -7.5 117.5t-24 133.5t-51 124.5t-81.5 70.5z" />
<glyph unicode="*" horiz-adv-x="618" d="M49 567l25 65l202 -81l-2 219h70l-2 -219l202 81l25 -65l-207 -81l144 -160l-58 -49l-139 172l-138 -172l-60 49l144 160z" />
<glyph unicode="+" horiz-adv-x="650" d="M353 0h-67v242h-236v67h236v241h67v-241h247v-67h-247v-242z" />
<glyph unicode="," horiz-adv-x="202" d="M40 49q0 24 16 39.5t40 15.5q30 0 45.5 -24.5t15.5 -57.5q-1 -72 -74 -162l-42 14q50 62 59 119q-27 0 -43.5 16t-16.5 40z" />
<glyph unicode="-" horiz-adv-x="346" d="M291 310v-70h-236v70h236z" />
<glyph unicode="." horiz-adv-x="201" d="M45 49q0 24 16 39.5t40 15.5t39.5 -15.5t15.5 -39.5t-15.5 -40t-39.5 -16t-40 16t-16 40z" />
<glyph unicode="/" horiz-adv-x="432" d="M329 770h83l-309 -1030h-83z" />
<glyph unicode="0" horiz-adv-x="612" d="M60 283q0 81 21.5 140.5t58 91.5t78 47t88.5 15t88.5 -15t78 -47t58 -91.5t21.5 -140.5t-21.5 -140.5t-58 -91.5t-78 -47t-88.5 -15t-88.5 15t-78 47t-58 91.5t-21.5 140.5zM468 283q0 116 -47 168t-115 52t-115 -52t-47 -168t47 -168t115 -52t115 52t47 168z" />
<glyph unicode="1" horiz-adv-x="357" d="M274 0h-81v480l-89 -75l-54 52l143 108h81v-565z" />
<glyph unicode="2" horiz-adv-x="550" d="M119 407q-51 48 -51 49q21 38 75.5 79t122.5 42q88 0 137 -45t49 -132q0 -68 -80.5 -158t-183.5 -169h306l1 -73h-445v64l34 24q22 15 76.5 58.5t96 82.5t76 86t34.5 79q0 53 -27.5 78.5t-74.5 24.5q-26 0 -51 -9.5t-41.5 -22.5t-29 -26.5t-18.5 -22.5z" />
<glyph unicode="3" horiz-adv-x="558" d="M110 426l-47 46q2 4 6.5 11t20 25.5t34 32t50 25t65.5 11.5q71 0 120.5 -45.5t49.5 -116.5q0 -77 -89 -143q74 -9 125.5 -62t53.5 -129q0 -72 -28 -131t-72.5 -93.5t-93.5 -53t-96 -18.5q-43 0 -85.5 15.5t-63.5 31.5l-20 15l53 52q5 -4 13.5 -10t39 -15t63.5 -8 q45 0 90 21t80 72t35 122q0 48 -36 84.5t-85 36.5q-20 0 -42 -3t-39 -6.5t-30.5 -7.5t-21.5 -7l-8 -2v70q81 33 128 72.5t47 96.5q0 36 -25.5 58.5t-61.5 22.5q-26 0 -48.5 -7t-37 -17.5t-25 -21t-15.5 -17.5z" />
<glyph unicode="4" horiz-adv-x="628" d="M598 73v-73h-113v-215h-81v215h-364v44l392 521h53v-492h113zM169 73h235v336l-240 -325l-14 -14v-1z" />
<glyph unicode="5" horiz-adv-x="590" d="M168 489v-202q58 26 132 26q88 0 155 -70t71 -160q0 -72 -28 -131t-71.5 -94t-92 -54t-95.5 -19q-51 0 -93 17t-59 34l-17 17l52 51q4 -4 12 -10.5t38.5 -17t66.5 -10.5q73 0 137 56.5t64 160.5q0 56 -41 106.5t-99 50.5q-77 0 -132 -37h-81v362h376v-76h-295z" />
<glyph unicode="6" horiz-adv-x="620" d="M347 474q94 0 153.5 -54.5t59.5 -172.5q0 -39 -12.5 -80t-38 -81.5t-74 -66.5t-112.5 -26q-124 0 -191.5 93.5t-67.5 268.5q0 176 83 303t207 127q92 0 174 -66l-54 -52q-49 41 -117 41q-56 0 -98.5 -37t-65.5 -95.5t-35 -117.5t-13 -115q86 131 202 131zM323 67 q54 0 90.5 32.5t49.5 71t13 76.5q0 80 -36 116.5t-93 36.5q-112 0 -191 -165q17 -82 60 -125t107 -43z" />
<glyph unicode="7" horiz-adv-x="517" d="M44 485v80h443v-59q-95 -200 -233.5 -448.5t-192.5 -272.5l-56 55q42 26 165.5 243t213.5 402h-340z" />
<glyph unicode="8" horiz-adv-x="594" d="M509 615q0 -70 -48 -124.5t-108 -90.5q42 -31 67 -52t53.5 -51t42 -61t13.5 -65q0 -38 -12 -68.5t-29 -49t-42.5 -32t-45.5 -19.5t-45.5 -9.5t-34.5 -3.5h-21h-2h-17q-7 0 -34 3t-46.5 9t-46.5 19.5t-44.5 32t-30.5 49.5t-13 69q1 70 47.5 128.5t109.5 101.5 q-137 109 -137 214q0 45 18.5 78.5t50.5 52t67.5 27t75.5 8.5t75.5 -8.5t67.5 -27t50.5 -52t18.5 -78.5zM444 171q0 42 -42 85t-124 102q-121 -78 -128 -187q0 -27 9.5 -48t27 -32.5t33 -19t36.5 -9.5l26 -2q6 -1 15 -1h1q11 0 22 0.5t35.5 6.5t42 16.5t32 33.5t14.5 55z M295 443q26 14 51.5 33t51.5 58t26 81q0 54 -37 78t-90 24t-90 -24t-37 -78q0 -44 33 -85t92 -87z" />
<glyph unicode="9" horiz-adv-x="620" d="M273 96q-94 0 -153.5 54.5t-59.5 172.5q0 39 12.5 80t38 81.5t74 66.5t112.5 26q124 0 191.5 -93.5t67.5 -268.5q0 -53 -10 -109.5t-33.5 -114.5t-56.5 -103.5t-83.5 -74t-110.5 -28.5q-57 0 -106 18.5t-76 37.5l55 53q58 -32 126 -32q56 0 99 36.5t66.5 95t35 117 t13.5 115.5q-88 -130 -202 -130zM273 170q111 0 191 164q-17 83 -60 126t-107 43q-54 0 -90.5 -32.5t-49.5 -71t-13 -76.5q0 -80 36 -116.5t93 -36.5z" />
<glyph unicode=":" horiz-adv-x="251" d="M70 415q0 24 16 39.5t40 15.5t39.5 -15.5t15.5 -39.5t-15.5 -40t-39.5 -16t-40 16t-16 40zM70 49q0 24 16 39.5t40 15.5t39.5 -15.5t15.5 -39.5t-15.5 -40t-39.5 -16t-40 16t-16 40z" />
<glyph unicode=";" horiz-adv-x="257" d="M70 415q0 24 16 39.5t40 15.5t39.5 -15.5t15.5 -39.5t-15.5 -40t-39.5 -16t-40 16t-16 40zM70 49q0 24 16 39.5t40 15.5q30 0 45.5 -24.5t15.5 -57.5q-1 -72 -74 -162l-42 14q50 62 59 119q-27 0 -43.5 16t-16.5 40z" />
<glyph unicode="&#x3c;" horiz-adv-x="700" d="M75 244v72l555 251v-72l-476 -215l476 -215v-72z" />
<glyph unicode="=" horiz-adv-x="681" d="M616 395v-67h-551v67h551zM616 235v-67h-551v67h551z" />
<glyph unicode="&#x3e;" horiz-adv-x="700" d="M625 316v-72l-555 -251v72l475 215l-475 215v72z" />
<glyph unicode="?" horiz-adv-x="504" d="M195 49q0 24 16 39.5t40 15.5t39.5 -15.5t15.5 -39.5t-15.5 -40t-39.5 -16t-40 16t-16 40zM384 640q0 110 -124 110q-29 0 -56.5 -12.5t-46.5 -30t-34 -35t-22 -30.5l-7 -12l-53 50q3 6 9.5 15.5t27.5 33.5t44.5 42.5t61 33.5t76.5 15q51 0 90 -12.5t61 -31.5t35.5 -44.5 t17.5 -47t4 -44.5q0 -38 -12 -72t-40 -68t-46 -51l-55 -52q-80 -73 -80 -104q0 -43 46 -84l-51 -44q-26 23 -38.5 37.5t-23 38.5t-10.5 53q0 44 25.5 80t78.5 83q36 33 58 56.5t42.5 58.5t21.5 68z" />
<glyph unicode="@" horiz-adv-x="1072" d="M426 19q-135 1 -135 187q0 79 27.5 150.5t69 119t89.5 75.5t90 28q93 0 145 -80l14 59l78 -18q-102 -453 -102 -458q3 -3 28 2t60 22.5t68 46t55 80t19 115.5q0 62 -25 122t-71 109.5t-118.5 80t-158.5 30.5q-108 0 -205.5 -61t-155.5 -160.5t-58 -207.5 q0 -161 124.5 -269.5t294.5 -108.5q89 0 157 23.5t167 105.5l50 -62q-113 -93 -191.5 -120t-182.5 -27q-132 0 -246 58.5t-183.5 164.5t-69.5 235q0 130 69 248t184.5 189.5t245.5 71.5q105 0 193 -37t143.5 -97.5t86 -135t30.5 -152.5q0 -77 -26.5 -138t-65 -95.5 t-85.5 -57.5t-83 -30.5t-63 -7.5q-81 0 -62 89q-102 -90 -201 -89zM371 206q0 -124 55 -127q38 -1 78 19t72 51.5t49 51.5t30 38l37 168q-27 66 -57.5 89t-67.5 23q-66 0 -131 -92t-65 -221z" />
<glyph unicode="A" horiz-adv-x="720" d="M314 770h92l284 -770h-93l-97 262h-281l-96 -262h-93zM360 644l-113 -306h225z" />
<glyph unicode="B" horiz-adv-x="639" d="M173 0h-88v770h88v-56q57 37 93 52t80 15q81 0 139 -54.5t58 -168.5q-1 -109 -78 -158q63 -29 88 -75.5t25 -87.5v-5q0 -21 -0.5 -34.5t-5.5 -41.5t-14 -47.5t-28 -44t-46 -40t-69.5 -26t-96.5 -10.5q-67 2 -145 57v-45zM173 356v-241q72 -45 145 -45q38 0 67.5 8 t47.5 17.5t31 28.5t18.5 30t8.5 33t3 27v23q0 15 -6.5 31.5t-22.5 37.5t-52 35.5t-87 16.5q-29 -2 -153 -2zM459 560q-1 71 -34 105t-79 34q-78 0 -173 -58v-213h55q15 0 49.5 1.5t50.5 4.5l41 10q26 6 38.5 15.5t26.5 23t19.5 33t5.5 44.5z" />
<glyph unicode="C" horiz-adv-x="663" d="M610 675l-61 -59l-5 8q-4 6 -19 20t-32.5 24.5t-48.5 19t-67 8.5q-91 0 -159 -85t-68 -244q0 -125 64 -210t156 -85q22 0 43.5 3t39.5 8t34.5 11.5t30 13.5t24.5 14t19.5 13.5t14.5 11.5t9 8l3 3l54 -52q-30 -37 -57 -56q-86 -62 -213 -62q-134 0 -223 108.5t-89 270.5 q0 99 29 180.5t75.5 130.5t102 75.5t111.5 26.5q45 0 85 -11t65.5 -26t45 -30.5t28.5 -26.5z" />
<glyph unicode="D" horiz-adv-x="734" d="M173 0h-88v770h88v-85q100 94 227 95q54 0 101 -22t87 -67t63 -125t23 -186q0 -167 -87.5 -279.5t-216.5 -112.5q-93 2 -197 69v-57zM586 380q0 154 -54.5 233t-128.5 81q-137 0 -230 -95v-462q96 -63 197 -63q92 0 154 86.5t62 219.5z" />
<glyph unicode="E" horiz-adv-x="562" d="M522 0h-437v770h318l105 5v-91h-335v-248h285v-76h-285v-274h244l105 5v-91z" />
<glyph unicode="F" horiz-adv-x="543" d="M173 0h-88v770h318l105 5v-91h-335v-248h285v-76h-285v-360z" />
<glyph unicode="G" horiz-adv-x="745" d="M659 391v-239q0 -66 -73.5 -114t-164.5 -50q-78 0 -141.5 25t-103.5 64.5t-67 91.5t-38 102.5t-11 101.5q0 90 23.5 161.5t59.5 116t84.5 74.5t95 42t93.5 13q44 0 84.5 -12t67.5 -29.5t48 -35t30 -29.5l10 -12l-61 -59q-2 4 -7 10.5t-21 23t-34.5 29t-49 23t-63.5 11.5 q-44 0 -88 -17t-86 -53t-68.5 -102.5t-26.5 -154.5q0 -49 14.5 -98.5t44 -95.5t83.5 -75t124 -30q48 0 106 26.5t58 55.5v149h-103q-53 0 -81 15v80q36 -9 84 -9h178z" />
<glyph unicode="H" horiz-adv-x="742" d="M173 0h-88v770h88v-334h396v334h88v-770h-88v360h-396v-360z" />
<glyph unicode="I" horiz-adv-x="258" d="M173 0h-88v770h88v-770z" />
<glyph unicode="J" horiz-adv-x="286" d="M114 770h88v-787q0 -46 -12.5 -84.5t-31 -64t-44 -45.5t-47 -30t-45.5 -18l-32 79q53 15 88.5 55t35.5 108v787z" />
<glyph unicode="K" horiz-adv-x="618" d="M85 770h88v-347l264 347h111l-288 -360q22 -3 54.5 -18.5t51.5 -37.5q22 -22 119.5 -178.5t112.5 -173.5v-2h-107q-17 18 -92 144t-93 145q-40 44 -90 44q-30 0 -43 -3v-330h-88v770z" />
<glyph unicode="L" horiz-adv-x="587" d="M85 0v770h88v-684h274l105 5v-91h-467z" />
<glyph unicode="M" horiz-adv-x="851" d="M173 0h-88v770h88l251 -660l1 -7l1 7l252 660h88v-770h-88v540l1 15l-4 -15l-207 -540h-85l-207 540l-4 15l1 -15v-540z" />
<glyph unicode="N" horiz-adv-x="724" d="M173 0h-88v770h88v-1l372 -605l7 -14l-1 14v606h88v-770h-88v1l-372 607l-7 14l1 -14v-608z" />
<glyph unicode="O" horiz-adv-x="759" d="M381 780q50 -1 94 -12.5t86 -39.5t71.5 -71.5t48 -112t18.5 -156.5q0 -111 -27 -191t-74 -123t-101 -62t-118 -19t-117.5 19t-100.5 61.5t-74 122.5t-27 190t27 190t74.5 123t101.5 62t118 19zM381 698q-46 0 -85.5 -15t-74 -49t-54 -96.5t-19.5 -149.5 q0 -88 19.5 -151.5t53.5 -97.5t73 -49t85 -15t85 15t73 48.5t54 97t20 150.5q0 86 -19.5 149t-53.5 97t-72.5 49.5t-84.5 16.5z" />
<glyph unicode="P" horiz-adv-x="618" d="M173 0h-88v770h88v-60q93 70 178 70q78 -3 147 -68.5t70 -173.5q0 -140 -67.5 -223.5t-170.5 -83.5q-83 1 -157 52v-283zM484 538q-1 71 -43 114t-90 46q-48 0 -86 -14t-92 -48v-265q81 -63 161 -64q65 2 107.5 64t42.5 167z" />
<glyph unicode="Q" horiz-adv-x="759" d="M699 381q0 -101 -23 -177t-64 -119.5t-88.5 -66t-104.5 -28.5q34 -40 113 -40q26 0 94 16l24 -79q-43 -19 -118 -19q-47 0 -85 12.5t-60.5 33.5t-35.5 39t-21 38q-119 14 -194.5 106.5t-75.5 283.5q0 89 18.5 159t48.5 114.5t72.5 73.5t87 40.5t94.5 11.5 q63 -1 117 -21.5t100.5 -64t73.5 -124t27 -189.5zM381 698q-46 0 -85.5 -16t-73.5 -50.5t-54 -98t-20 -150.5q0 -88 19.5 -151.5t53.5 -97.5t73 -49t85 -15t85 15t73 48.5t54 97t20 150.5q0 70 -13 125t-35 90t-52 58.5t-62 33t-68 10.5z" />
<glyph unicode="R" horiz-adv-x="659" d="M173 0h-88v770h88v-56q54 34 91.5 50t82.5 16q82 -2 144 -55t62 -164q0 -74 -26.5 -126t-62.5 -76t-83 -34q40 -34 132.5 -165t130.5 -158v-2h-109q-26 19 -65.5 71.5t-72.5 103t-73.5 94t-72.5 49.5q-55 0 -78 1v-319zM321 390q59 1 103 40t45 131q0 68 -37 101.5 t-85 35.5q-49 0 -86 -13t-88 -43v-252h148z" />
<glyph unicode="S" horiz-adv-x="665" d="M57 137l61 58q38 -61 99 -92.5t133 -33.5q70 0 120 37t50 105q0 26 -11 47.5t-24.5 34.5t-41 26t-46.5 19.5t-53 16.5q-7 2 -10 3q-46 14 -70.5 22.5t-60.5 27t-54.5 38t-32.5 51t-14 71.5q0 52 17.5 91.5t43 62t58.5 36.5t59.5 18.5t51.5 4.5q73 0 136.5 -25t103.5 -68 l-62 -54q-64 67 -178 67q-21 0 -42.5 -5.5t-46.5 -18.5t-41 -41t-16 -68q0 -22 11 -40t23.5 -29t41.5 -23.5t44 -17.5t52 -16q44 -14 71.5 -24t64.5 -29.5t58 -42t36.5 -57.5t15.5 -78q0 -106 -75 -164t-181 -58q-194 6 -291 148z" />
<glyph unicode="T" horiz-adv-x="562" d="M10 694v76h542v-76h-229v-694h-88v694h-225z" />
<glyph unicode="U" horiz-adv-x="713" d="M628 239q0 -65 -21 -113.5t-50 -74t-69 -40.5t-70 -19t-61 -4q-32 0 -61.5 4t-70 19t-69.5 40.5t-50 74t-21 113.5v531h88v-529q0 -46 14 -79.5t34 -51.5t47 -29t47.5 -13.5t41.5 -2.5t41 2.5t47 13.5t46.5 28.5t34 51t14.5 78.5v531h88v-531z" />
<glyph unicode="V" horiz-adv-x="700" d="M396 0h-92l-274 770h93l224 -633l3 -13l3 13l224 633h93z" />
<glyph unicode="W" horiz-adv-x="986" d="M321 0h-73l-218 770h92l160 -620l2 -12l2 12l160 620h93l160 -620l2 -12l2 12l160 620h93l-218 -770h-73l-170 594l-3 18l-3 -18z" />
<glyph unicode="X" horiz-adv-x="657" d="M520 770h107l-245 -386l245 -384h-108l-191 299l-190 -299h-108l244 384l-244 386h107l191 -301z" />
<glyph unicode="Y" horiz-adv-x="617" d="M505 770h102l-254 -401v-369h-87v369l-256 401h106l194 -306z" />
<glyph unicode="Z" horiz-adv-x="614" d="M564 101v-85q-9 -8 -38.5 -12t-54.5 -4h-25h-395v82l385 606h-375v82h482v-80l-385 -608h290q94 -3 116 19z" />
<glyph unicode="[" horiz-adv-x="359" d="M289 770v-60h-120v-910h120v-60h-204v1030h204z" />
<glyph unicode="\" horiz-adv-x="442" d="M25 770h83l309 -1030h-83z" />
<glyph unicode="]" horiz-adv-x="359" d="M70 -260v60h120v910h-120v60h204v-1030h-204z" />
<glyph unicode="^" horiz-adv-x="654" d="M291 550h72l251 -550h-72l-215 471l-215 -471h-72z" />
<glyph unicode="_" horiz-adv-x="661" d="M606 0v-64h-551v64h551z" />
<glyph unicode="`" horiz-adv-x="356" d="M55 699l21 71l225 -112l-21 -47z" />
<glyph unicode="a" horiz-adv-x="564" d="M392 404q0 25 -15.5 57t-46.5 32q-107 0 -168 -52q-9 -10 -8 -19.5t8 -16.5l-80 -15q-16 21 -6 57t45 56q108 60 221 59q49 0 80.5 -30t41 -63t9.5 -65v-271q0 -8 2 -20t16 -36t38 -39l-54 -50q-58 23 -77 97q-91 -97 -188 -97q-10 0 -24 2t-37.5 11t-42 24t-32.5 44.5 t-14 68.5q0 35 7 60.5t26 50.5t59 42.5t101 26.5q104 14 139 23v63zM207 58q51 0 100 32.5t85 77.5v101q-49 -10 -130 -21q-74 -10 -96.5 -36.5t-22.5 -73.5q0 -24 8.5 -41.5t20.5 -25t20.5 -10.5t14.5 -3z" />
<glyph unicode="b" horiz-adv-x="631" d="M373 562q88 -1 143 -83t55 -195q0 -140 -61.5 -218t-169.5 -78q-76 0 -171 76v-64h-84v820h84v-376q93 119 204 118zM373 480q-120 1 -204 -130v-194q37 -37 85 -61.5t86 -24.5q67 0 107 57t40 157q0 79 -31.5 137t-82.5 59z" />
<glyph unicode="c" horiz-adv-x="510" d="M291 562q32 -1 61 -10.5t47.5 -22.5t33 -25.5t21.5 -21.5l6 -8l-53 -50q-1 2 -4 6t-13 13.5t-22.5 17t-33.5 14t-45 7.5q-58 2 -104 -55t-46 -162q0 -84 40 -140.5t105 -56.5q25 0 40 2t40.5 15.5t53.5 39.5l52 -50q-40 -40 -76 -60.5t-56.5 -23.5t-53.5 -3 q-102 0 -165.5 79t-63.5 198q0 144 73 222t163 75z" />
<glyph unicode="d" horiz-adv-x="651" d="M258 -12q-88 1 -143 83t-55 195q0 140 61.5 218t169.5 78q76 0 171 -76v334h84v-688q1 -8 3.5 -19.5t19 -37.5t42.5 -39l-69 -48q-70 38 -80 118q-93 -119 -204 -118zM258 70q121 -2 204 130v194q-39 37 -86 61.5t-85 24.5q-67 0 -107 -57t-40 -157q0 -79 31.5 -137 t82.5 -59z" />
<glyph unicode="e" horiz-adv-x="580" d="M55 269q0 118 67.5 205.5t169.5 87.5q58 0 102 -22.5t66.5 -52.5t36 -68t17 -62t3.5 -41v-37h-378q0 -94 41.5 -155.5t115.5 -61.5q56 0 95 24q39 23 75 71l51 -49q-35 -43 -69 -70.5t-66 -36.5t-46.5 -11t-39.5 -2q-111 0 -176 81.5t-65 199.5zM292 488 q-49 0 -86.5 -37.5t-54.5 -97.5h278q-5 23 -13.5 43.5t-23.5 42.5t-41 35.5t-59 13.5z" />
<glyph unicode="f" horiz-adv-x="403" d="M184 646v-96h162v-70h-162v-480h-83v480h-71v70h71v96q0 179 155 179q101 0 177 -63l-54 -52q-58 45 -123 45q-24 0 -39 -7.5t-22 -25t-9 -33t-2 -43.5z" />
<glyph unicode="g" d="M165 388q0 -39 13 -66t34.5 -39.5t41.5 -17t42 -4.5t42.5 5.5t41.5 18.5t34 39.5t13 63.5q0 55 -42 83.5t-89 28.5t-89 -28.5t-42 -83.5zM93 122q0 47 71 104q-83 47 -83 162q0 45 21.5 81t55.5 55.5t69.5 29.5t68.5 10q31 0 67 -9q65 59 151 59q27 0 60 -10l-14 -70 q-18 6 -46 6q-43 0 -81 -16q78 -50 78 -136q0 -56 -21.5 -96t-56 -59.5t-68.5 -27.5t-69 -8q-34 0 -60 5q-59 -42 -59 -80q3 -3 25.5 -4.5t58.5 -2.5l36 -1q58 -3 101 -10.5t87.5 -24t68.5 -49.5t24 -80q0 -97 -70.5 -161t-207.5 -64q-97 0 -168.5 48t-71.5 119q1 61 22 98 t62 67q-47 20 -51 65zM300 -200q96 0 147 42.5t51 107.5q0 26 -17.5 44t-50.5 27t-62.5 13t-71.5 6q-58 0 -72 1q-41 -25 -60 -55.5t-19 -93.5q0 -40 46 -66t109 -26z" />
<glyph unicode="h" horiz-adv-x="606" d="M169 0h-84v820h84v-386q132 128 240 128q127 0 127 -171v-391h-84v391q0 87 -43 87q-114 0 -240 -131v-347z" />
<glyph unicode="i" horiz-adv-x="271" d="M94 550h83v-550h-83v550zM85 720q0 22 14.5 36t36.5 14t36 -14t14 -36t-14 -36.5t-36 -14.5t-36.5 14.5t-14.5 36.5z" />
<glyph unicode="j" horiz-adv-x="221" d="M35 720q0 22 14.5 36t36.5 14t36 -14t14 -36t-14 -36.5t-36 -14.5t-36.5 14.5t-14.5 36.5zM44 550h83v-593q0 -87 -42.5 -150.5t-94.5 -81.5l-25 79q30 4 54.5 49.5t24.5 103.5v593z" />
<glyph unicode="k" horiz-adv-x="565" d="M570 0h-113q-12 4 -50 44.5t-94 106t-72 82.5q-30 31 -48 36q-10 3 -24 -1v-268h-84v820h84v-464q187 131 219 194h85q-17 -65 -228 -224q32 -13 56 -39l165 -186q93 -101 104 -101z" />
<glyph unicode="l" horiz-adv-x="280" d="M85 820h83v-674q0 -54 11 -65q22 -22 66 -22l-3 -71q-88 0 -122 34q-35 35 -35 124v674z" />
<glyph unicode="m" horiz-adv-x="919" d="M169 0h-84v550h84v-109q110 121 208 121q108 0 124 -124q111 124 211 124q127 0 127 -171v-391h-84v391q0 87 -43 87q-36 0 -68.5 -12t-60.5 -36t-42.5 -39t-36.5 -42v-349h-84v391q0 87 -43 87q-36 0 -68.5 -12t-60.5 -36t-42.5 -39t-36.5 -42v-349z" />
<glyph unicode="n" d="M169 0h-84v550h84v-116q132 128 240 128q127 0 127 -171v-391h-84v391q0 87 -43 87q-111 0 -240 -131v-347z" />
<glyph unicode="o" horiz-adv-x="598" d="M60 275q0 81 20 139t55 89t75.5 45t88.5 14t88.5 -14t75.5 -45t55 -89t20 -139t-20 -139t-55 -89t-75.5 -45t-88.5 -14t-88.5 14t-75.5 45t-55 89t-20 139zM454 275q0 116 -44.5 166.5t-110.5 50.5t-110.5 -50.5t-44.5 -166.5t44.5 -166.5t110.5 -50.5t110.5 50.5 t44.5 166.5z" />
<glyph unicode="p" horiz-adv-x="631" d="M169 -260h-84v810h84v-106q93 119 204 118q88 -1 143 -83t55 -195q0 -140 -61.5 -218t-169.5 -78q-76 0 -171 76v-324zM373 480q-120 1 -204 -130v-194q37 -37 85 -61.5t86 -24.5q67 0 107 57t40 157q0 79 -31.5 137t-82.5 59z" />
<glyph unicode="q" horiz-adv-x="631" d="M258 -12q-88 1 -143 83t-55 195q0 140 61.5 218t169.5 78q76 0 171 -76v64h84v-810h-84v365q-95 -118 -204 -117zM258 70q121 -2 204 130v194q-39 37 -86 61.5t-85 24.5q-67 0 -107 -57t-40 -157q0 -79 31.5 -137t82.5 -59z" />
<glyph unicode="r" horiz-adv-x="459" d="M85 550h84v-106q69 118 139 118q38 0 71.5 -14t47.5 -28l14 -13l-58 -56q-24 31 -71 31q-77 0 -143 -138v-344h-84v550z" />
<glyph unicode="s" horiz-adv-x="501" d="M157 405q0 -17 8.5 -29.5t28 -22.5t34 -15.5t43.5 -14.5q36 -11 54 -17t46.5 -21t42.5 -30.5t25.5 -42.5t11.5 -61q0 -79 -56 -121t-135 -42q-64 0 -122.5 29t-92.5 83l58 47q22 -40 66 -64t93 -25q45 0 77 24t32 69q0 27 -21 47t-42.5 28.5t-60.5 20.5t-63 21.5 t-52 27.5t-41.5 45t-13.5 64q0 38 13 67.5t32 46t44 27t44.5 13.5t38.5 3q109 0 173 -64l-54 -52q-43 46 -119 46q-19 0 -37.5 -5.5t-36.5 -26.5t-18 -55z" />
<glyph unicode="t" horiz-adv-x="400" d="M45 480v70h70v150h84v-150h132v-70h-132v-320q0 -20 1 -32.5t5.5 -31.5t16 -28.5t29.5 -9.5q47 0 87 38l47 -45q-66 -63 -156 -63q-114 0 -114 172v320h-70z" />
<glyph unicode="u" d="M207 72q114 0 240 131v347h84v-550h-84v115q-133 -127 -240 -127q-127 0 -127 171v391h84v-391q0 -87 43 -87z" />
<glyph unicode="v" horiz-adv-x="559" d="M35 550h97l143 -425l3 -19l2 9q1 9 1 10q120 397 152 425h91q-17 -21 -68.5 -158.5t-94.5 -264.5l-43 -127h-73z" />
<glyph unicode="w" horiz-adv-x="797" d="M273 0h-79l-159 550h91l109 -410l3 -21l3 21l117 410h72l117 -410l4 -21l3 21q106 399 126 410h82q-12 -12 -55.5 -149.5t-80.5 -268.5l-38 -132h-71l-123 424z" />
<glyph unicode="x" horiz-adv-x="594" d="M60 550h106l136 -199q130 193 148 199h104q-24 -11 -205 -268l200 -282h-106l-142 212q-144 -208 -157 -212h-104q14 6 91.5 110.5t122.5 170.5z" />
<glyph unicode="y" horiz-adv-x="550" d="M50 550h89l149 -386q150 368 172 386h95q-22 -21 -63.5 -113.5t-197.5 -475.5l-27 -64q-10 -23 -30.5 -55.5t-44.5 -55.5q-58 -56 -142 -61l-21 73q67 4 106 43q19 19 36 48t44 94l27 67z" />
<glyph unicode="z" horiz-adv-x="518" d="M478 88v-71q-6 -7 -24 -11t-33 -5l-15 -1h-356v71l310 409h-310v70h411v-70l-310 -409h256q55 0 71 17z" />
<glyph unicode="{" horiz-adv-x="470" d="M284 830q29 0 58 -8t44 -16l14 -9l-28 -70q-28 19 -88 19q-24 0 -24 -68v-299q0 -3 -0.5 -8t-4.5 -17t-10 -23.5t-19 -25t-30 -23.5q18 -10 31 -23.5t19 -24.5t9.5 -23.5t4 -17.5t0.5 -8v-299q0 -68 24 -68q27 0 49 5t31 9l8 5l28 -70q-50 -33 -116 -33q-32 0 -55 16 t-33.5 41.5t-15 48.5t-4.5 46v298q0 3 -0.5 8t-6 17.5t-14.5 22t-28.5 17.5t-46.5 8v50q43 0 67 18.5t27 36.5l2 18v298q0 23 4.5 46t15 48.5t33.5 41.5t55 16z" />
<glyph unicode="|" horiz-adv-x="246" d="M161 -260h-76v1090h76v-1090z" />
<glyph unicode="}" horiz-adv-x="470" d="M186 746q-27 0 -49 -5t-31 -9l-8 -5l-28 70q50 33 116 33q32 0 55 -16t33.5 -41.5t15 -48.5t4.5 -46v-298q0 -3 0.5 -8t5.5 -17.5t14 -22t29 -17.5t47 -8v-50q-26 0 -45.5 -7t-28.5 -16.5t-14.5 -21.5t-6.5 -17.5t-1 -9.5v-299q0 -23 -4.5 -46t-15 -48.5t-33.5 -41.5 t-55 -16q-29 0 -58 8t-44 16l-14 9l28 70q28 -19 88 -19q24 0 24 68v298q0 7 2 18.5t17.5 37.5t43.5 42q-28 16 -43.5 40.5t-17.5 36.5t-2 20v299q0 68 -24 68z" />
<glyph unicode="~" horiz-adv-x="659" d="M90 298l-30 48q5 4 15.5 10t48.5 16t82 10q40 0 125 -31q86 -30 128 -30q35 0 63.5 5.5t39.5 11.5l11 6l26 -50q-52 -33 -140 -33q-46 0 -144 34q-75 27 -109 27q-38 0 -67 -6t-39 -12z" />
<glyph unicode="&#xaa;" horiz-adv-x="564" d="M392 404q0 25 -15.5 57t-46.5 32q-107 0 -168 -52q-9 -10 -8 -19.5t8 -16.5l-80 -15q-16 21 -6 57t45 56q108 60 221 59q49 0 80.5 -30t41 -63t9.5 -65v-271q0 -8 2 -20t16 -36t38 -39l-54 -50q-58 23 -77 97q-91 -97 -188 -97q-10 0 -24 2t-37.5 11t-42 24t-32.5 44.5 t-14 68.5q0 35 7 60.5t26 50.5t59 42.5t101 26.5q104 14 139 23v63zM207 58q51 0 100 32.5t85 77.5v101q-49 -10 -130 -21q-74 -10 -96.5 -36.5t-22.5 -73.5q0 -24 8.5 -41.5t20.5 -25t20.5 -10.5t14.5 -3z" />
<glyph unicode="&#xad;" horiz-adv-x="346" d="M291 310v-70h-236v70h236z" />
<glyph unicode="&#xb2;" horiz-adv-x="550" d="M119 407q-51 48 -51 49q21 38 75.5 79t122.5 42q88 0 137 -45t49 -132q0 -68 -80.5 -158t-183.5 -169h306l1 -73h-445v64l34 24q22 15 76.5 58.5t96 82.5t76 86t34.5 79q0 53 -27.5 78.5t-74.5 24.5q-26 0 -51 -9.5t-41.5 -22.5t-29 -26.5t-18.5 -22.5z" />
<glyph unicode="&#xb3;" horiz-adv-x="558" d="M110 426l-47 46q2 4 6.5 11t20 25.5t34 32t50 25t65.5 11.5q71 0 120.5 -45.5t49.5 -116.5q0 -77 -89 -143q74 -9 125.5 -62t53.5 -129q0 -72 -28 -131t-72.5 -93.5t-93.5 -53t-96 -18.5q-43 0 -85.5 15.5t-63.5 31.5l-20 15l53 52q5 -4 13.5 -10t39 -15t63.5 -8 q45 0 90 21t80 72t35 122q0 48 -36 84.5t-85 36.5q-20 0 -42 -3t-39 -6.5t-30.5 -7.5t-21.5 -7l-8 -2v70q81 33 128 72.5t47 96.5q0 36 -25.5 58.5t-61.5 22.5q-26 0 -48.5 -7t-37 -17.5t-25 -21t-15.5 -17.5z" />
<glyph unicode="&#xb9;" horiz-adv-x="357" d="M274 0h-81v480l-89 -75l-54 52l143 108h81v-565z" />
<glyph unicode="&#xba;" horiz-adv-x="598" d="M60 275q0 81 20 139t55 89t75.5 45t88.5 14t88.5 -14t75.5 -45t55 -89t20 -139t-20 -139t-55 -89t-75.5 -45t-88.5 -14t-88.5 14t-75.5 45t-55 89t-20 139zM454 275q0 116 -44.5 166.5t-110.5 50.5t-110.5 -50.5t-44.5 -166.5t44.5 -166.5t110.5 -50.5t110.5 50.5 t44.5 166.5z" />
<glyph unicode="&#xc0;" horiz-adv-x="720" d="M135 928l21 71l225 -112l-21 -47zM314 770h92l284 -770h-93l-97 262h-281l-96 -262h-93zM360 644l-113 -306h225z" />
<glyph unicode="&#xc2;" horiz-adv-x="720" d="M324 1390h72l251 -550h-72l-215 471l-215 -471h-72zM314 770h92l284 -770h-93l-97 262h-281l-96 -262h-93zM360 644l-113 -306h225z" />
<glyph unicode="&#xc3;" horiz-adv-x="720" d="M120 877l-30 48q5 4 15.5 10t48.5 16t82 10q40 0 125 -31q86 -30 128 -30q35 0 63.5 5.5t39.5 11.5l11 6l26 -50q-52 -33 -140 -33q-46 0 -144 34q-75 27 -109 27q-38 0 -67 -6t-39 -12zM314 770h92l284 -770h-93l-97 262h-281l-96 -262h-93zM360 644l-113 -306h225z" />
<glyph unicode="&#xc8;" horiz-adv-x="562" d="M283 928l21 71l225 -112l-21 -47zM522 0h-437v770h318l105 5v-91h-335v-248h285v-76h-285v-274h244l105 5v-91z" />
<glyph unicode="&#xca;" horiz-adv-x="562" d="M472 1390h72l251 -550h-72l-215 471l-215 -471h-72zM522 0h-437v770h318l105 5v-91h-335v-248h285v-76h-285v-274h244l105 5v-91z" />
<glyph unicode="&#xcc;" horiz-adv-x="258" d="M-96 928l21 71l225 -112l-21 -47zM173 0h-88v770h88v-770z" />
<glyph unicode="&#xce;" horiz-adv-x="258" d="M93 1390h72l251 -550h-72l-215 471l-215 -471h-72zM173 0h-88v770h88v-770z" />
<glyph unicode="&#xd1;" horiz-adv-x="724" d="M122 877l-30 48q5 4 15.5 10t48.5 16t82 10q40 0 125 -31q86 -30 128 -30q35 0 63.5 5.5t39.5 11.5l11 6l26 -50q-52 -33 -140 -33q-46 0 -144 34q-75 27 -109 27q-38 0 -67 -6t-39 -12zM173 0h-88v770h88v-1l372 -605l7 -14l-1 14v606h88v-770h-88v1l-372 607l-7 14 l1 -14v-608z" />
<glyph unicode="&#xd2;" horiz-adv-x="759" d="M156 928l21 71l225 -112l-21 -47zM381 780q50 -1 94 -12.5t86 -39.5t71.5 -71.5t48 -112t18.5 -156.5q0 -111 -27 -191t-74 -123t-101 -62t-118 -19t-117.5 19t-100.5 61.5t-74 122.5t-27 190t27 190t74.5 123t101.5 62t118 19zM381 698q-46 0 -85.5 -15t-74 -49 t-54 -96.5t-19.5 -149.5q0 -88 19.5 -151.5t53.5 -97.5t73 -49t85 -15t85 15t73 48.5t54 97t20 150.5q0 86 -19.5 149t-53.5 97t-72.5 49.5t-84.5 16.5z" />
<glyph unicode="&#xd4;" horiz-adv-x="759" d="M345 1390h72l251 -550h-72l-215 471l-215 -471h-72zM381 780q50 -1 94 -12.5t86 -39.5t71.5 -71.5t48 -112t18.5 -156.5q0 -111 -27 -191t-74 -123t-101 -62t-118 -19t-117.5 19t-100.5 61.5t-74 122.5t-27 190t27 190t74.5 123t101.5 62t118 19zM381 698 q-46 0 -85.5 -15t-74 -49t-54 -96.5t-19.5 -149.5q0 -88 19.5 -151.5t53.5 -97.5t73 -49t85 -15t85 15t73 48.5t54 97t20 150.5q0 86 -19.5 149t-53.5 97t-72.5 49.5t-84.5 16.5z" />
<glyph unicode="&#xd5;" horiz-adv-x="759" d="M142 877l-30 48q5 4 15.5 10t48.5 16t82 10q40 0 125 -31q86 -30 128 -30q35 0 63.5 5.5t39.5 11.5l11 6l26 -50q-52 -33 -140 -33q-46 0 -144 34q-75 27 -109 27q-38 0 -67 -6t-39 -12zM381 780q50 -1 94 -12.5t86 -39.5t71.5 -71.5t48 -112t18.5 -156.5 q0 -111 -27 -191t-74 -123t-101 -62t-118 -19t-117.5 19t-100.5 61.5t-74 122.5t-27 190t27 190t74.5 123t101.5 62t118 19zM381 698q-46 0 -85.5 -15t-74 -49t-54 -96.5t-19.5 -149.5q0 -88 19.5 -151.5t53.5 -97.5t73 -49t85 -15t85 15t73 48.5t54 97t20 150.5 q0 86 -19.5 149t-53.5 97t-72.5 49.5t-84.5 16.5z" />
<glyph unicode="&#xd9;" horiz-adv-x="713" d="M131 928l21 71l225 -112l-21 -47zM628 239q0 -65 -21 -113.5t-50 -74t-69 -40.5t-70 -19t-61 -4q-32 0 -61.5 4t-70 19t-69.5 40.5t-50 74t-21 113.5v531h88v-529q0 -46 14 -79.5t34 -51.5t47 -29t47.5 -13.5t41.5 -2.5t41 2.5t47 13.5t46.5 28.5t34 51t14.5 78.5v531h88 v-531z" />
<glyph unicode="&#xdb;" horiz-adv-x="713" d="M321 1390h72l251 -550h-72l-215 471l-215 -471h-72zM628 239q0 -65 -21 -113.5t-50 -74t-69 -40.5t-70 -19t-61 -4q-32 0 -61.5 4t-70 19t-69.5 40.5t-50 74t-21 113.5v531h88v-529q0 -46 14 -79.5t34 -51.5t47 -29t47.5 -13.5t41.5 -2.5t41 2.5t47 13.5t46.5 28.5t34 51 t14.5 78.5v531h88v-531z" />
<glyph unicode="&#xe0;" horiz-adv-x="564" d="M115 710l21 71l225 -112l-21 -47zM392 404q0 25 -15.5 57t-46.5 32q-107 0 -168 -52q-9 -10 -8 -19.5t8 -16.5l-80 -15q-16 21 -6 57t45 56q108 60 221 59q49 0 80.5 -30t41 -63t9.5 -65v-271q0 -8 2 -20t16 -36t38 -39l-54 -50q-58 23 -77 97q-91 -97 -188 -97 q-10 0 -24 2t-37.5 11t-42 24t-32.5 44.5t-14 68.5q0 35 7 60.5t26 50.5t59 42.5t101 26.5q104 14 139 23v63zM207 58q51 0 100 32.5t85 77.5v101q-49 -10 -130 -21q-74 -10 -96.5 -36.5t-22.5 -73.5q0 -24 8.5 -41.5t20.5 -25t20.5 -10.5t14.5 -3z" />
<glyph unicode="&#xe2;" horiz-adv-x="564" d="M304 1172h72l251 -550h-72l-215 471l-215 -471h-72zM392 404q0 25 -15.5 57t-46.5 32q-107 0 -168 -52q-9 -10 -8 -19.5t8 -16.5l-80 -15q-16 21 -6 57t45 56q108 60 221 59q49 0 80.5 -30t41 -63t9.5 -65v-271q0 -8 2 -20t16 -36t38 -39l-54 -50q-58 23 -77 97 q-91 -97 -188 -97q-10 0 -24 2t-37.5 11t-42 24t-32.5 44.5t-14 68.5q0 35 7 60.5t26 50.5t59 42.5t101 26.5q104 14 139 23v63zM207 58q51 0 100 32.5t85 77.5v101q-49 -10 -130 -21q-74 -10 -96.5 -36.5t-22.5 -73.5q0 -24 8.5 -41.5t20.5 -25t20.5 -10.5t14.5 -3z" />
<glyph unicode="&#xe3;" horiz-adv-x="564" d="M101 659l-30 48q5 4 15.5 10t48.5 16t82 10q40 0 125 -31q86 -30 128 -30q35 0 63.5 5.5t39.5 11.5l11 6l26 -50q-52 -33 -140 -33q-46 0 -144 34q-75 27 -109 27q-38 0 -67 -6t-39 -12zM392 404q0 25 -15.5 57t-46.5 32q-107 0 -168 -52q-9 -10 -8 -19.5t8 -16.5 l-80 -15q-16 21 -6 57t45 56q108 60 221 59q49 0 80.5 -30t41 -63t9.5 -65v-271q0 -8 2 -20t16 -36t38 -39l-54 -50q-58 23 -77 97q-91 -97 -188 -97q-10 0 -24 2t-37.5 11t-42 24t-32.5 44.5t-14 68.5q0 35 7 60.5t26 50.5t59 42.5t101 26.5q104 14 139 23v63zM207 58 q51 0 100 32.5t85 77.5v101q-49 -10 -130 -21q-74 -10 -96.5 -36.5t-22.5 -73.5q0 -24 8.5 -41.5t20.5 -25t20.5 -10.5t14.5 -3z" />
<glyph unicode="&#xe8;" horiz-adv-x="580" d="M67 710l21 71l225 -112l-21 -47zM55 269q0 118 67.5 205.5t169.5 87.5q58 0 102 -22.5t66.5 -52.5t36 -68t17 -62t3.5 -41v-37h-378q0 -94 41.5 -155.5t115.5 -61.5q56 0 95 24q39 23 75 71l51 -49q-35 -43 -69 -70.5t-66 -36.5t-46.5 -11t-39.5 -2q-111 0 -176 81.5 t-65 199.5zM292 488q-49 0 -86.5 -37.5t-54.5 -97.5h278q-5 23 -13.5 43.5t-23.5 42.5t-41 35.5t-59 13.5z" />
<glyph unicode="&#xea;" horiz-adv-x="580" d="M256 1172h72l251 -550h-72l-215 471l-215 -471h-72zM55 269q0 118 67.5 205.5t169.5 87.5q58 0 102 -22.5t66.5 -52.5t36 -68t17 -62t3.5 -41v-37h-378q0 -94 41.5 -155.5t115.5 -61.5q56 0 95 24q39 23 75 71l51 -49q-35 -43 -69 -70.5t-66 -36.5t-46.5 -11t-39.5 -2 q-111 0 -176 81.5t-65 199.5zM292 488q-49 0 -86.5 -37.5t-54.5 -97.5h278q-5 23 -13.5 43.5t-23.5 42.5t-41 35.5t-59 13.5z" />
<glyph unicode="&#xec;" horiz-adv-x="271" d="M-89 918l21 71l225 -112l-21 -47zM94 550h83v-550h-83v550zM85 720q0 22 14.5 36t36.5 14t36 -14t14 -36t-14 -36.5t-36 -14.5t-36.5 14.5t-14.5 36.5z" />
<glyph unicode="&#xee;" horiz-adv-x="271" d="M100 1380h72l251 -550h-72l-215 471l-215 -471h-72zM94 550h83v-550h-83v550zM85 720q0 22 14.5 36t36.5 14t36 -14t14 -36t-14 -36.5t-36 -14.5t-36.5 14.5t-14.5 36.5z" />
<glyph unicode="&#xf1;" d="M71 659l-30 48q5 4 15.5 10t48.5 16t82 10q40 0 125 -31q86 -30 128 -30q35 0 63.5 5.5t39.5 11.5l11 6l26 -50q-52 -33 -140 -33q-46 0 -144 34q-75 27 -109 27q-38 0 -67 -6t-39 -12zM169 0h-84v550h84v-116q132 128 240 128q127 0 127 -171v-391h-84v391q0 87 -43 87 q-111 0 -240 -131v-347z" />
<glyph unicode="&#xf2;" horiz-adv-x="598" d="M74 710l21 71l225 -112l-21 -47zM60 275q0 81 20 139t55 89t75.5 45t88.5 14t88.5 -14t75.5 -45t55 -89t20 -139t-20 -139t-55 -89t-75.5 -45t-88.5 -14t-88.5 14t-75.5 45t-55 89t-20 139zM454 275q0 116 -44.5 166.5t-110.5 50.5t-110.5 -50.5t-44.5 -166.5 t44.5 -166.5t110.5 -50.5t110.5 50.5t44.5 166.5z" />
<glyph unicode="&#xf4;" horiz-adv-x="598" d="M263 1172h72l251 -550h-72l-215 471l-215 -471h-72zM60 275q0 81 20 139t55 89t75.5 45t88.5 14t88.5 -14t75.5 -45t55 -89t20 -139t-20 -139t-55 -89t-75.5 -45t-88.5 -14t-88.5 14t-75.5 45t-55 89t-20 139zM454 275q0 116 -44.5 166.5t-110.5 50.5t-110.5 -50.5 t-44.5 -166.5t44.5 -166.5t110.5 -50.5t110.5 50.5t44.5 166.5z" />
<glyph unicode="&#xf5;" horiz-adv-x="598" d="M60 659l-30 48q5 4 15.5 10t48.5 16t82 10q40 0 125 -31q86 -30 128 -30q35 0 63.5 5.5t39.5 11.5l11 6l26 -50q-52 -33 -140 -33q-46 0 -144 34q-75 27 -109 27q-38 0 -67 -6t-39 -12zM60 275q0 81 20 139t55 89t75.5 45t88.5 14t88.5 -14t75.5 -45t55 -89t20 -139 t-20 -139t-55 -89t-75.5 -45t-88.5 -14t-88.5 14t-75.5 45t-55 89t-20 139zM454 275q0 116 -44.5 166.5t-110.5 50.5t-110.5 -50.5t-44.5 -166.5t44.5 -166.5t110.5 -50.5t110.5 50.5t44.5 166.5z" />
<glyph unicode="&#xf9;" d="M81 710l21 71l225 -112l-21 -47zM207 72q114 0 240 131v347h84v-550h-84v115q-133 -127 -240 -127q-127 0 -127 171v391h84v-391q0 -87 43 -87z" />
<glyph unicode="&#xfb;" d="M269 1172h72l251 -550h-72l-215 471l-215 -471h-72zM207 72q114 0 240 131v347h84v-550h-84v115q-133 -127 -240 -127q-127 0 -127 171v391h84v-391q0 -87 43 -87z" />
<glyph unicode="&#x152;" horiz-adv-x="1321" d="M1281 0h-437v770h318l105 5v-91h-335v-248h285v-76h-285v-274h244l105 5v-91zM381 780q50 -1 94 -12.5t86 -39.5t71.5 -71.5t48 -112t18.5 -156.5q0 -111 -27 -191t-74 -123t-101 -62t-118 -19t-117.5 19t-100.5 61.5t-74 122.5t-27 190t27 190t74.5 123t101.5 62t118 19 zM381 698q-46 0 -85.5 -15t-74 -49t-54 -96.5t-19.5 -149.5q0 -88 19.5 -151.5t53.5 -97.5t73 -49t85 -15t85 15t73 48.5t54 97t20 150.5q0 86 -19.5 149t-53.5 97t-72.5 49.5t-84.5 16.5z" />
<glyph unicode="&#x153;" horiz-adv-x="1178" d="M653 269q0 118 67.5 205.5t169.5 87.5q58 0 102 -22.5t66.5 -52.5t36 -68t17 -62t3.5 -41v-37h-378q0 -94 41.5 -155.5t115.5 -61.5q56 0 95 24q39 23 75 71l51 -49q-35 -43 -69 -70.5t-66 -36.5t-46.5 -11t-39.5 -2q-111 0 -176 81.5t-65 199.5zM890 488 q-49 0 -86.5 -37.5t-54.5 -97.5h278q-5 23 -13.5 43.5t-23.5 42.5t-41 35.5t-59 13.5zM60 275q0 81 20 139t55 89t75.5 45t88.5 14t88.5 -14t75.5 -45t55 -89t20 -139t-20 -139t-55 -89t-75.5 -45t-88.5 -14t-88.5 14t-75.5 45t-55 89t-20 139zM454 275q0 116 -44.5 166.5 t-110.5 50.5t-110.5 -50.5t-44.5 -166.5t44.5 -166.5t110.5 -50.5t110.5 50.5t44.5 166.5z" />
<glyph unicode="&#x2c6;" horiz-adv-x="654" d="M291 550h72l251 -550h-72l-215 471l-215 -471h-72z" />
<glyph unicode="&#x2dc;" horiz-adv-x="260" d="M-240 97l-30 48q5 4 15.5 10t48.5 16t82 10q40 0 125 -31q86 -30 128 -30q35 0 63.5 5.5t39.5 11.5l11 6l26 -50q-52 -33 -140 -33q-46 0 -144 34q-75 27 -109 27q-38 0 -67 -6t-39 -12z" />
<glyph unicode="&#x2000;" horiz-adv-x="695" />
<glyph unicode="&#x2001;" horiz-adv-x="1390" />
<glyph unicode="&#x2002;" horiz-adv-x="695" />
<glyph unicode="&#x2003;" horiz-adv-x="1390" />
<glyph unicode="&#x2004;" horiz-adv-x="463" />
<glyph unicode="&#x2005;" horiz-adv-x="347" />
<glyph unicode="&#x2006;" horiz-adv-x="231" />
<glyph unicode="&#x2007;" horiz-adv-x="231" />
<glyph unicode="&#x2008;" horiz-adv-x="173" />
<glyph unicode="&#x2009;" horiz-adv-x="278" />
<glyph unicode="&#x200a;" horiz-adv-x="77" />
<glyph unicode="&#x2010;" horiz-adv-x="346" d="M291 310v-70h-236v70h236z" />
<glyph unicode="&#x2011;" horiz-adv-x="346" d="M291 310v-70h-236v70h236z" />
<glyph unicode="&#x2013;" horiz-adv-x="641" d="M581 308v-65h-551v65h551z" />
<glyph unicode="&#x2014;" horiz-adv-x="761" d="M721 308v-65h-681v65h681z" />
<glyph unicode="&#x2018;" horiz-adv-x="356" d="M55 699l21 71l225 -112l-21 -47z" />
<glyph unicode="&#x2019;" horiz-adv-x="207" d="M45 715q0 24 16 39.5t40 15.5q30 0 45.5 -24.5t15.5 -57.5q-1 -72 -74 -162l-42 14q50 62 59 119q-27 0 -43.5 16t-16.5 40z" />
<glyph unicode="&#x201c;" horiz-adv-x="378" d="M333 581q0 -24 -16 -39.5t-40 -15.5q-30 0 -45.5 24.5t-15.5 57.5q1 72 74 162l42 -14q-50 -62 -60 -119q27 0 44 -16t17 -40zM162 581q0 -24 -16 -39.5t-40 -15.5q-30 0 -45.5 24.5t-15.5 57.5q1 72 74 162l42 -14q-50 -62 -60 -119q27 0 44 -16t17 -40z" />
<glyph unicode="&#x201d;" horiz-adv-x="378" d="M45 715q0 24 16 39.5t40 15.5q30 0 45.5 -24.5t15.5 -57.5q-1 -72 -74 -162l-42 14q50 62 59 119q-27 0 -43.5 16t-16.5 40zM216 715q0 24 16 39.5t40 15.5q29 0 45 -24.5t16 -57.5q-1 -72 -74 -162l-42 14q50 62 59 119q-27 0 -43.5 16t-16.5 40z" />
<glyph unicode="&#x2026;" horiz-adv-x="603" d="M447 49q0 24 16 39.5t40 15.5t39.5 -15.5t15.5 -39.5t-15.5 -40t-39.5 -16t-40 16t-16 40zM246 49q0 24 16 39.5t40 15.5t39.5 -15.5t15.5 -39.5t-15.5 -40t-39.5 -16t-40 16t-16 40zM45 49q0 24 16 39.5t40 15.5t39.5 -15.5t15.5 -39.5t-15.5 -40t-39.5 -16t-40 16 t-16 40z" />
<glyph unicode="&#x202f;" horiz-adv-x="278" />
<glyph unicode="&#x2039;" horiz-adv-x="700" d="M75 244v72l555 251v-72l-476 -215l476 -215v-72z" />
<glyph unicode="&#x203a;" horiz-adv-x="700" d="M625 316v-72l-555 -251v72l475 215l-475 215v72z" />
<glyph unicode="&#x205f;" horiz-adv-x="347" />
<glyph unicode="&#x2122;" horiz-adv-x="1413" d="M735 0h-88v770h88l251 -660l1 -7l1 7l252 660h88v-770h-88v540l1 15l-4 -15l-207 -540h-85l-207 540l-4 15l1 -15v-540zM10 694v76h542v-76h-229v-694h-88v694h-225z" />
</font>
</defs>
</svg>
